#!OML:ASF X:\für Bonn\!DataBase\2005_08_10_Bjorn_Final\c3d\bjorn.ASF
:FULLY-SPECIFIED
:DEGREES
145
root 0.241232 18.1612 2.97388 -169.054 1.27347 -180.586
lowerback 7.87459 0.435361 5.64194
upperback 8.66227 1.90109 0.422144
thorax 4.77751 1.69662 -2.74411
lowerneck -14.3207 -1.53673 0.518534
upperneck 6.4064 -1.93509 -2.84086
head 4.19915 -1.13776 -1.11127
rclavicle 9.93923e-015 -1.27222e-014
rhumerus 75.1217 3.67155 -68.9028
rradius 12.3691
rwrist 41.4422
rhand -14.6152 10.6158
rfingers 7.12502
rthumb 11.5358 -19.0467
lclavicle 9.93923e-015 -1.27222e-014
lhumerus 76.0695 -13.1271 76.5817
lradius 7.86391
lwrist -50.7062
lhand -24.5077 -6.78409
lfingers 7.12502
lthumb 1.98704 23.1864
rfemur -38.8976 -10.0556 15.9532
rtibia 56.6764
rfoot -22.7824 13.4312
rtoes -24.7961
lfemur -37.9862 -1.75526 -18.5992
ltibia 58.2017
lfoot -20.5374 -0.332208
ltoes -18.8839
146
root 0.251655 18.3267 2.93362 -168.992 1.20668 -180.567
lowerback 7.22736 0.513921 5.61051
upperback 8.45607 1.89908 0.427585
thorax 4.91713 1.66478 -2.7073
lowerneck -13.7552 -1.5605 0.535808
upperneck 6.60998 -1.96134 -2.77247
head 4.17128 -1.1385 -1.08986
rclavicle 2.3059e-014 3.33958e-014
rhumerus 74.8319 3.68237 -69.0807
rradius 12.5281
rwrist 41.557
rhand -14.2659 10.6401
rfingers 7.12502
rthumb 11.8727 -19.0033
lclavicle 2.3059e-014 3.33958e-014
lhumerus 75.8474 -13.1852 76.5227
lradius 7.81236
lwrist -50.8152
lhand -24.5077 -6.75362
lfingers 7.12502
lthumb 1.98705 23.2169
rfemur -37.4505 -10.0909 15.9944
rtibia 54.1896
rfoot -21.7646 13.4766
rtoes -24.4656
lfemur -36.3552 -1.52286 -18.5941
ltibia 55.3207
lfoot -19.8811 -0.601369
ltoes -17.6213
147
root 0.26219 18.4807 2.89254 -168.92 1.1175 -180.568
lowerback 6.5956 0.602228 5.56411
upperback 8.19379 1.90506 0.424535
thorax 4.99013 1.63034 -2.67374
lowerneck -13.0846 -1.59598 0.550641
upperneck 6.83055 -2.00795 -2.65492
head 4.13138 -1.14621 -1.05335
rclavicle -2.50469e-014 -1.74931e-014
rhumerus 74.4364 3.65942 -69.4631
rradius 12.6708
rwrist 41.9422
rhand -14.034 10.6565
rfingers 7.12502
rthumb 12.0963 -18.9739
lclavicle -2.50469e-014 -1.74931e-014
lhumerus 75.5853 -13.3059 76.4782
lradius 7.75534
lwrist -50.9392
lhand -24.3566 -6.73257
lfingers 7.12502
lthumb 2.13295 23.2365
rfemur -36.0659 -10.1458 16.0126
rtibia 51.79
rfoot -20.7735 13.5116
rtoes -24.1582
lfemur -34.7897 -1.25376 -18.6132
ltibia 52.5183
lfoot -19.2045 -0.91581
ltoes -16.4218
148
root 0.273922 18.6258 2.84563 -168.838 1.04494 -180.549
lowerback 5.91437 0.695477 5.52794
upperback 7.901 1.91169 0.422727
thorax 5.06043 1.59418 -2.64397
lowerneck -12.3182 -1.6197 0.580073
upperneck 7.05093 -2.04112 -2.5752
head 4.0751 -1.15031 -1.02888
rclavicle -4.77083e-015 6.36111e-015
rhumerus 74.0188 3.67784 -69.751
rradius 12.7635
rwrist 42.4202
rhand -13.972 10.6857
rfingers 7.12502
rthumb 12.1561 -18.9411
lclavicle -4.77083e-015 6.36111e-015
lhumerus 75.3004 -13.4143 76.4296
lradius 7.66591
lwrist -51.0961
lhand -24.2446 -6.7109
lfingers 7.12502
lthumb 2.24109 23.2571
rfemur -34.7148 -10.1804 16.0466
rtibia 49.4605
rfoot -19.7464 13.582
rtoes -23.5733
lfemur -33.2722 -0.898894 -18.619
ltibia 49.8102
lfoot -18.5423 -1.23171
ltoes -15.4241
149
root 0.285175 18.7612 2.79124 -168.78 0.933677 -180.551
lowerback 5.20655 0.786918 5.50728
upperback 7.59078 1.916 0.394708
thorax 5.13035 1.55796 -2.64979
lowerneck -11.4249 -1.65333 0.672249
upperneck 6.88827 -2.11294 -2.40459
head 4.31173 -1.15866 -1.09122
rclavicle -1.15295e-014 -4.29375e-014
rhumerus 73.4978 3.63926 -70.1805
rradius 12.8668
rwrist 43.0855
rhand -14.0817 10.6967
rfingers 7.12502
rthumb 12.0504 -18.9364
lclavicle -1.15295e-014 -4.29375e-014
lhumerus 74.9931 -13.5781 76.3648
lradius 7.62626
lwrist -51.2083
lhand -23.9661 -6.72749
lfingers 7.12502
lthumb 2.51013 23.2375
rfemur -33.3508 -10.2812 16.0548
rtibia 47.2231
rfoot -18.7897 13.6266
rtoes -23.1403
lfemur -31.7588 -0.550907 -18.6461
ltibia 47.2055
lfoot -17.9336 -1.59872
ltoes -14.4349
150
root 0.297443 18.8851 2.73308 -168.684 0.837173 -180.531
lowerback 4.44774 0.885701 5.46609
upperback 7.24852 1.92437 0.405223
thorax 5.19463 1.51964 -2.60327
lowerneck -10.5372 -1.68518 0.658504
upperneck 7.13968 -2.15887 -2.31313
head 4.22242 -1.174 -1.04957
rclavicle -9.93923e-015 1.59028e-014
rhumerus 72.9951 3.65029 -70.4856
rradius 12.9128
rwrist 43.7731
rhand -14.349 10.7227
rfingers 7.12502
rthumb 11.7925 -18.9253
lclavicle -9.93923e-015 1.59028e-014
lhumerus 74.6775 -13.7083 76.3523
lradius 7.59406
lwrist -51.2111
lhand -23.6348 -6.76802
lfingers 7.12502
lthumb 2.83004 23.1929
rfemur -32.071 -10.3823 16.1
rtibia 45.0745
rfoot -17.8299 13.6825
rtoes -22.7549
lfemur -30.3556 -0.110294 -18.6512
ltibia 44.7323
lfoot -17.2871 -2.0057
ltoes -13.503
151
root 0.310575 18.9976 2.67771 -168.573 0.717948 -180.53
lowerback 3.70484 0.978668 5.42647
upperback 6.88795 1.93039 0.376035
thorax 5.23361 1.48123 -2.59992
lowerneck -9.62697 -1.71523 0.730898
upperneck 7.3575 -2.21874 -2.2205
head 4.11582 -1.19535 -1.02312
rclavicle -1.55052e-014 -1.51076e-014
rhumerus 72.4844 3.64651 -70.7732
rradius 12.9682
rwrist 44.3227
rhand -14.7235 10.6794
rfingers 7.12502
rthumb 11.4314 -18.989
lclavicle -1.55052e-014 -1.51076e-014
lhumerus 74.3619 -13.8609 76.2837
lradius 7.61046
lwrist -51.1059
lhand -23.3301 -6.81788
lfingers 7.12502
lthumb 3.12434 23.139
rfemur -30.8845 -10.5299 16.1375
rtibia 43.0452
rfoot -16.8964 13.6713
rtoes -22.5513
lfemur -29.0596 0.379447 -18.6767
ltibia 42.3974
lfoot -16.5394 -2.5036
ltoes -12.3803
152
root 0.324005 19.1 2.6229 -168.47 0.586609 -180.536
lowerback 2.97645 1.06164 5.37158
upperback 6.51857 1.92902 0.361007
thorax 5.25459 1.43926 -2.57395
lowerneck -8.79704 -1.74938 0.710715
upperneck 7.64081 -2.2789 -2.09498
head 4.0506 -1.22098 -0.971539
rclavicle 1.11319e-014 1.19271e-014
rhumerus 72.0457 3.66225 -71.0032
rradius 12.9126
rwrist 44.7701
rhand -15.1311 10.6349
rfingers 7.12502
rthumb 11.0383 -19.0548
lclavicle 1.11319e-014 1.19271e-014
lhumerus 74.0472 -13.9841 76.2377
lradius 7.64107
lwrist -50.8319
lhand -23.102 -6.95214
lfingers 7.12502
lthumb 3.34464 23.0014
rfemur -29.7551 -10.6847 16.1727
rtibia 41.1487
rfoot -16.0131 13.6723
rtoes -22.2697
lfemur -27.8512 0.921624 -18.7124
ltibia 40.2332
lfoot -15.7674 -3.03361
ltoes -11.2046
153
root 0.337444 19.1909 2.56559 -168.34 0.460159 -180.515
lowerback 2.17806 1.15597 5.3429
upperback 6.17113 1.94507 0.343594
thorax 5.34293 1.41194 -2.56162
lowerneck -8.07018 -1.78446 0.702146
upperneck 7.92972 -2.34586 -1.96923
head 4.00822 -1.25177 -0.924289
rclavicle -1.94809e-014 5.56597e-015
rhumerus 71.755 3.66186 -71.0063
rradius 12.7513
rwrist 44.887
rhand -15.4489 10.6169
rfingers 7.12502
rthumb 10.7318 -19.0889
lclavicle -1.94809e-014 5.56597e-015
lhumerus 73.8307 -14.1408 76.1797
lradius 7.62654
lwrist -50.3642
lhand -22.9445 -7.10047
lfingers 7.12502
lthumb 3.49673 22.8506
rfemur -28.7393 -10.9115 16.2503
rtibia 39.4173
rfoot -15.1949 13.7388
rtoes -21.9169
lfemur -26.7676 1.47403 -18.7133
ltibia 38.2619
lfoot -15.0034 -3.57731
ltoes -10.0417
154
root 0.351891 19.2682 2.50637 -168.184 0.323592 -180.496
lowerback 1.33068 1.24361 5.31102
upperback 5.82872 1.95423 0.315786
thorax 5.46554 1.38389 -2.55666
lowerneck -7.3962 -1.81735 0.682578
upperneck 8.20853 -2.41454 -1.81677
head 3.97354 -1.28408 -0.867018
rclavicle -3.22031e-014 -3.97569e-014
rhumerus 71.614 3.69687 -70.8062
rradius 12.4626
rwrist 44.7113
rhand -15.7076 10.5023
rfingers 7.12502
rthumb 10.4822 -19.2163
lclavicle -3.22031e-014 -3.97569e-014
lhumerus 73.6484 -14.2717 76.091
lradius 7.61045
lwrist -49.8193
lhand -22.8636 -7.2886
lfingers 7.12502
lthumb 3.57481 22.6612
rfemur -27.8517 -11.1916 16.3531
rtibia 37.8755
rfoot -14.5045 13.7631
rtoes -21.817
lfemur -25.8344 2.13287 -18.7301
ltibia 36.51
lfoot -14.2801 -4.14614
ltoes -9.95896
155
root 0.365784 19.3304 2.44684 -167.953 0.187042 -180.516
lowerback 0.394306 1.3183 5.23291
upperback 5.47896 1.94468 0.283057
thorax 5.62911 1.34591 -2.52938
lowerneck -6.87331 -1.83704 0.651447
upperneck 8.55173 -2.46412 -1.70878
head 3.99221 -1.31164 -0.825025
rclavicle -3.97569e-016 2.62396e-014
rhumerus 71.5993 3.80345 -70.4149
rradius 12.1057
rwrist 44.2394
rhand -15.7815 10.3873
rfingers 7.12502
rthumb 10.411 -19.3349
lclavicle -3.97569e-016 2.62396e-014
lhumerus 73.4942 -14.355 75.998
lradius 7.56896
lwrist -49.1764
lhand -22.8919 -7.43138
lfingers 7.12502
lthumb 3.54746 22.5188
rfemur -27.1577 -11.5605 16.4319
rtibia 36.5298
rfoot -13.8662 13.9204
rtoes -21.559
lfemur -25.1127 2.81557 -18.7964
ltibia 34.9922
lfoot -13.6166 -4.7152
ltoes -10.3645
156
root 0.380763 19.3802 2.38811 -167.728 0.0452142 -180.517
lowerback -0.53809 1.73707 5.15043
upperback 5.15401 1.86497 0.289872
thorax 5.83035 1.05335 -2.48374
lowerneck -6.53376 -1.86873 0.564804
upperneck 8.94386 -2.52875 -1.57503
head 4.06604 -1.34837 -0.769179
rclavicle -7.55382e-015 -4.77083e-015
rhumerus 71.65 3.84749 -70.0967
rradius 11.766
rwrist 43.9046
rhand -15.5845 10.2455
rfingers 7.12502
rthumb 10.6009 -19.4671
lclavicle -7.55382e-015 -4.77083e-015
lhumerus 73.3729 -14.4361 75.9168
lradius 7.55012
lwrist -48.4999
lhand -22.9724 -7.59313
lfingers 7.12502
lthumb 3.46976 22.3584
rfemur -26.5517 -11.927 16.5352
rtibia 35.3719
rfoot -13.3221 14.0931
rtoes -21.2276
lfemur -24.5178 3.60105 -18.8476
ltibia 33.7147
lfoot -13.0381 -5.41025
ltoes -10.7809
157
root 0.394865 19.4211 2.33014 -167.531 -0.110539 -180.518
lowerback -1.40952 1.73773 5.10123
upperback 4.82244 1.8762 0.237315
thorax 5.97774 1.07487 -2.49093
lowerneck -6.31073 -1.8974 0.465629
upperneck 9.36862 -2.59419 -1.40249
head 4.17617 -1.38478 -0.700511
rclavicle -1.0138e-014 -6.36111e-015
rhumerus 71.6073 3.80661 -70.0894
rradius 11.5321
rwrist 43.844
rhand -15.1569 10.142
rfingers 7.12502
rthumb 11.0134 -19.5491
lclavicle -1.0138e-014 -6.36111e-015
lhumerus 73.4075 -14.4998 75.7688
lradius 7.35932
lwrist -47.8354
lhand -23.1418 -7.83081
lfingers 7.12502
lthumb 3.30617 22.1233
rfemur -25.9933 -12.4432 16.6578
rtibia 34.3677
rfoot -12.8754 14.3924
rtoes -20.8446
lfemur -24.0148 4.40203 -18.8766
ltibia 32.6616
lfoot -12.5146 -6.25567
ltoes -10.7998
158
root 0.40873 19.4555 2.27375 -167.39 -0.244961 -180.541
lowerback -2.18572 1.73435 5.00336
upperback 4.47074 1.88633 0.188979
thorax 6.04737 1.08935 -2.46958
lowerneck -6.14541 -1.91427 0.377257
upperneck 9.87422 -2.64637 -1.2816
head 4.32735 -1.41907 -0.652399
rclavicle 5.76476e-015 -1.03368e-014
rhumerus 71.4484 3.75815 -70.23
rradius 11.4098
rwrist 44.0728
rhand -14.5653 10.0248
rfingers 7.12502
rthumb 11.584 -19.635
lclavicle 5.76476e-015 -1.03368e-014
lhumerus 73.4706 -14.5271 75.6245
lradius 7.14921
lwrist -47.2963
lhand -23.1987 -8.01333
lfingers 7.12502
lthumb 3.25123 21.9416
rfemur -25.4495 -12.9951 16.744
rtibia 33.4911
rfoot -12.4833 14.7684
rtoes -20.2915
lfemur -23.5624 5.22925 -18.9083
ltibia 31.8095
lfoot -12.0421 -7.2019
ltoes -10.1478
159
root 0.422414 19.4838 2.2202 -167.358 -0.382746 -180.52
lowerback -2.82443 1.72986 4.92787
upperback 4.1472 1.89056 0.172646
thorax 6.0679 1.09661 -2.43133
lowerneck -5.84899 -1.92713 0.273851
upperneck 10.2243 -2.69136 -1.16841
head 4.39681 -1.45024 -0.599273
rclavicle -1.13307e-014 9.54166e-015
rhumerus 71.1604 3.55157 -71.0502
rradius 11.3981
rwrist 45.193
rhand -13.8908 9.92987
rfingers 7.12502
rthumb 12.2344 -19.6923
lclavicle -1.13307e-014 9.54166e-015
lhumerus 73.4452 -14.5455 75.5109
lradius 7.1328
lwrist -46.9346
lhand -23.1214 -8.07337
lfingers 7.12502
lthumb 3.32588 21.8804
rfemur -24.8624 -13.6287 16.8673
rtibia 32.7249
rfoot -12.1331 15.223
rtoes -19.6124
lfemur -23.1053 6.13182 -18.8735
ltibia 31.1582
lfoot -11.6233 -8.29714
ltoes -9.17371
